{"title":"Lupe Fiasco - Around My Way (h264/mp4)","uid":7456349,"size":127156863,"categoryP":"video","categoryS":"music_videos","magnet":"?xt=urn:btih:f4555067db78cc2705d71eea1085b677919fb751&amp;dn=Lupe+Fiasco+-+Around+My+Way+%28h264%2Fmp4%29&amp;tr=udp%3A%2F%2Ftracker.openbittorrent.com%3A80&amp;tr=udp%3A%2F%2Fopen.demonii.com%3A1337&amp;tr=udp%3A%2F%2Ftracker.coppersurfer.tk%3A6969&amp;tr=udp%3A%2F%2Fexodus.desync.com%3A6969","seeders":1,"leechers":0,"uploader":"MusicVideos-HQ","files":1,"time":1342674720,"description":"General\n\nFormat : MPEG-4\nFormat profile : Base Media\nCodec ID : isom\nFile size : 121 MiB\nDuration : 4mn 19s\nOverall bit rate mode : Variable\nOverall bit rate : 3 919 Kbps\nEncoded date : UTC 2012-07-13 04:37:35\nTagged date : UTC 2012-07-13 04:37:35\n\nVideo\nID : 1\nFormat : AVC\nFormat/Info : Advanced Video Codec\nFormat profile : &lt;a class=&quot;__cf_email__&quot; href=&quot;/cdn-cgi/l/email-protection&quot; data-cfemail=&quot;622a0b050a222e514c52&quot;&gt;[email&amp;#160;protected]&lt;/a&gt;&lt;script cf-hash='f9e31' type=&quot;text/javascript&quot;&gt;\n/* &lt;![CDATA[ */!function(){try{var t=&quot;currentScript&quot;in document?document.currentScript:function(){for(var t=document.getElementsByTagName(&quot;script&quot;),e=t.length;e--;)if(t[e].getAttribute(&quot;cf-hash&quot;))return t[e]}();if(t&amp;&amp;t.previousSibling){var e,r,n,i,c=t.previousSibling,a=c.getAttribute(&quot;data-cfemail&quot;);if(a){for(e=&quot;&quot;,r=parseInt(a.substr(0,2),16),n=2;a.length-n;n+=2)i=parseInt(a.substr(n,2),16)^r,e+=String.fromCharCode(i);e=document.createTextNode(e),c.parentNode.replaceChild(e,c)}}}catch(u){}}();/* ]]&gt; */&lt;/script&gt;\nFormat settings, CABAC : Yes\nFormat settings, ReFrames : 2 frames\nCodec ID : avc1\nCodec ID/Info : Advanced Video Coding\nDuration : 4mn 19s\nBit rate : 3 871 Kbps\nMaximum bit rate : 10.3 Mbps\nWidth : 720 pixels\nHeight : 480 pixels\nDisplay aspect ratio : 16:9\nOriginal display aspect ratio : 16:9\nFrame rate mode : Constant\nFrame rate : 23.976 fps\nStandard : NTSC\nColor space : YUV\nChroma subsampling : 4:2:0\nBit depth : 8 bits\nScan type : Progressive\nBits/(Pixel*Frame) : 0.467\nStream size : 115 MiB (95%)\n\n\nAudio\nID : 2\nFormat : AAC\nFormat/Info : Advanced Audio Codec\nFormat profile : LC\nCodec ID : 40\nDuration : 4mn 19s\nBit rate mode : Variable\nBit rate : 192 Kbps\nMaximum bit rate : 222 Kbps\nChannel(s) : 2 channels\nChannel positions : Front: L R\nSampling rate : 44.1 KHz\nCompression mode : Lossy\nDelay relative to video : -833ms\nStream size : 5.88 MiB (5%)","torrent":{"xt":"urn:btih:f4555067db78cc2705d71eea1085b677919fb751","amp;dn":"Lupe+Fiasco+-+Around+My+Way+%28h264%2Fmp4%29","amp;tr":["udp%3A%2F%2Ftracker.openbittorrent.com%3A80","udp%3A%2F%2Fopen.demonii.com%3A1337","udp%3A%2F%2Ftracker.coppersurfer.tk%3A6969","udp%3A%2F%2Fexodus.desync.com%3A6969"],"infoHash":"f4555067db78cc2705d71eea1085b677919fb751","infoHashBuffer":{"type":"Buffer","data":[244,85,80,103,219,120,204,39,5,215,30,234,16,133,182,119,145,159,183,81]},"announce":[],"urlList":[]}}